<mxfile host="app.diagrams.net" agent="Mozilla/5.0 (Windows NT 10.0; Win64; x64) AppleWebKit/537.36 (KHTML, like Gecko) Chrome/132.0.0.0 Safari/537.36" version="26.0.13">
  <diagram name="Page-1" id="pQrK_5ycTwzlkiA3JlTv">
    <mxGraphModel dx="2670" dy="1915" grid="1" gridSize="10" guides="1" tooltips="1" connect="1" arrows="1" fold="1" page="1" pageScale="1" pageWidth="827" pageHeight="1169" math="0" shadow="0">
      <root>
        <mxCell id="0" />
        <mxCell id="1" parent="0" />
        <mxCell id="B3AwaCvAjvExfI_dVN_B-46" style="edgeStyle=orthogonalEdgeStyle;rounded=0;orthogonalLoop=1;jettySize=auto;html=1;exitX=0.75;exitY=0;exitDx=0;exitDy=0;entryX=0.25;entryY=0;entryDx=0;entryDy=0;" edge="1" parent="1" source="B3AwaCvAjvExfI_dVN_B-4" target="B3AwaCvAjvExfI_dVN_B-20">
          <mxGeometry relative="1" as="geometry" />
        </mxCell>
        <mxCell id="B3AwaCvAjvExfI_dVN_B-51" style="edgeStyle=orthogonalEdgeStyle;rounded=0;orthogonalLoop=1;jettySize=auto;html=1;entryX=0.75;entryY=0;entryDx=0;entryDy=0;" edge="1" parent="1" source="B3AwaCvAjvExfI_dVN_B-4" target="B3AwaCvAjvExfI_dVN_B-28">
          <mxGeometry relative="1" as="geometry">
            <mxPoint x="-60" y="610" as="targetPoint" />
          </mxGeometry>
        </mxCell>
        <mxCell id="B3AwaCvAjvExfI_dVN_B-4" value="User" style="swimlane;fontStyle=1;align=center;verticalAlign=top;childLayout=stackLayout;horizontal=1;startSize=26;horizontalStack=0;resizeParent=1;resizeParentMax=0;resizeLast=0;collapsible=1;marginBottom=0;whiteSpace=wrap;html=1;" vertex="1" parent="1">
          <mxGeometry y="-150" width="160" height="180" as="geometry" />
        </mxCell>
        <mxCell id="B3AwaCvAjvExfI_dVN_B-5" value="&lt;div&gt;- userId: int&amp;nbsp;&lt;/div&gt;&lt;div&gt;- name: string&lt;/div&gt;&lt;div&gt;- email: string&amp;nbsp;&lt;/div&gt;&lt;div&gt;- password: string&lt;/div&gt;&lt;div&gt;- role: string&lt;/div&gt;" style="text;strokeColor=none;fillColor=none;align=left;verticalAlign=top;spacingLeft=4;spacingRight=4;overflow=hidden;rotatable=0;points=[[0,0.5],[1,0.5]];portConstraint=eastwest;whiteSpace=wrap;html=1;" vertex="1" parent="B3AwaCvAjvExfI_dVN_B-4">
          <mxGeometry y="26" width="160" height="84" as="geometry" />
        </mxCell>
        <mxCell id="B3AwaCvAjvExfI_dVN_B-6" value="" style="line;strokeWidth=1;fillColor=none;align=left;verticalAlign=middle;spacingTop=-1;spacingLeft=3;spacingRight=3;rotatable=0;labelPosition=right;points=[];portConstraint=eastwest;strokeColor=inherit;" vertex="1" parent="B3AwaCvAjvExfI_dVN_B-4">
          <mxGeometry y="110" width="160" height="8" as="geometry" />
        </mxCell>
        <mxCell id="B3AwaCvAjvExfI_dVN_B-7" value="&lt;div&gt;+ register(): void&amp;nbsp;&lt;/div&gt;&lt;div&gt;+ login(): boolean&amp;nbsp;&lt;/div&gt;&lt;div&gt;+ updateProfile(): void&lt;/div&gt;" style="text;strokeColor=none;fillColor=none;align=left;verticalAlign=top;spacingLeft=4;spacingRight=4;overflow=hidden;rotatable=0;points=[[0,0.5],[1,0.5]];portConstraint=eastwest;whiteSpace=wrap;html=1;" vertex="1" parent="B3AwaCvAjvExfI_dVN_B-4">
          <mxGeometry y="118" width="160" height="62" as="geometry" />
        </mxCell>
        <mxCell id="B3AwaCvAjvExfI_dVN_B-48" style="edgeStyle=orthogonalEdgeStyle;rounded=0;orthogonalLoop=1;jettySize=auto;html=1;entryX=0.5;entryY=0;entryDx=0;entryDy=0;" edge="1" parent="1" source="B3AwaCvAjvExfI_dVN_B-8" target="B3AwaCvAjvExfI_dVN_B-12">
          <mxGeometry relative="1" as="geometry" />
        </mxCell>
        <mxCell id="B3AwaCvAjvExfI_dVN_B-8" value="Product" style="swimlane;fontStyle=1;align=center;verticalAlign=top;childLayout=stackLayout;horizontal=1;startSize=26;horizontalStack=0;resizeParent=1;resizeParentMax=0;resizeLast=0;collapsible=1;marginBottom=0;whiteSpace=wrap;html=1;" vertex="1" parent="1">
          <mxGeometry x="140" y="230" width="160" height="210" as="geometry" />
        </mxCell>
        <mxCell id="B3AwaCvAjvExfI_dVN_B-9" value="&lt;div&gt;- productId: int (private)&lt;/div&gt;&lt;div&gt;- name: string&lt;/div&gt;&lt;div&gt;- description: string&lt;/div&gt;&lt;div&gt;- price: float&amp;nbsp;&lt;/div&gt;&lt;div&gt;- category: string&lt;/div&gt;&lt;div&gt;- imageUrl: string&amp;nbsp;&lt;/div&gt;&lt;div&gt;- stockQuantity: int&lt;/div&gt;" style="text;strokeColor=none;fillColor=none;align=left;verticalAlign=top;spacingLeft=4;spacingRight=4;overflow=hidden;rotatable=0;points=[[0,0.5],[1,0.5]];portConstraint=eastwest;whiteSpace=wrap;html=1;" vertex="1" parent="B3AwaCvAjvExfI_dVN_B-8">
          <mxGeometry y="26" width="160" height="114" as="geometry" />
        </mxCell>
        <mxCell id="B3AwaCvAjvExfI_dVN_B-10" value="" style="line;strokeWidth=1;fillColor=none;align=left;verticalAlign=middle;spacingTop=-1;spacingLeft=3;spacingRight=3;rotatable=0;labelPosition=right;points=[];portConstraint=eastwest;strokeColor=inherit;" vertex="1" parent="B3AwaCvAjvExfI_dVN_B-8">
          <mxGeometry y="140" width="160" height="8" as="geometry" />
        </mxCell>
        <mxCell id="B3AwaCvAjvExfI_dVN_B-11" value="&lt;div&gt;+ addProduct(): void&lt;/div&gt;&lt;div&gt;+ editProduct(): void&amp;nbsp;&lt;/div&gt;&lt;div&gt;+ deleteProduct(): void&amp;nbsp;&lt;/div&gt;" style="text;strokeColor=none;fillColor=none;align=left;verticalAlign=top;spacingLeft=4;spacingRight=4;overflow=hidden;rotatable=0;points=[[0,0.5],[1,0.5]];portConstraint=eastwest;whiteSpace=wrap;html=1;" vertex="1" parent="B3AwaCvAjvExfI_dVN_B-8">
          <mxGeometry y="148" width="160" height="62" as="geometry" />
        </mxCell>
        <mxCell id="B3AwaCvAjvExfI_dVN_B-12" value="Customization" style="swimlane;fontStyle=1;align=center;verticalAlign=top;childLayout=stackLayout;horizontal=1;startSize=26;horizontalStack=0;resizeParent=1;resizeParentMax=0;resizeLast=0;collapsible=1;marginBottom=0;whiteSpace=wrap;html=1;" vertex="1" parent="1">
          <mxGeometry x="460" y="400" width="160" height="200" as="geometry" />
        </mxCell>
        <mxCell id="B3AwaCvAjvExfI_dVN_B-13" value="&lt;div&gt;- customizationId: int&amp;nbsp;&lt;/div&gt;&lt;div&gt;- productId: int&amp;nbsp;&lt;/div&gt;&lt;div&gt;- userId: int&amp;nbsp;&lt;/div&gt;&lt;div&gt;- log: Longblob&lt;/div&gt;&lt;div&gt;- color: string&lt;/div&gt;&lt;div&gt;- size: string&lt;/div&gt;" style="text;strokeColor=none;fillColor=none;align=left;verticalAlign=top;spacingLeft=4;spacingRight=4;overflow=hidden;rotatable=0;points=[[0,0.5],[1,0.5]];portConstraint=eastwest;whiteSpace=wrap;html=1;" vertex="1" parent="B3AwaCvAjvExfI_dVN_B-12">
          <mxGeometry y="26" width="160" height="104" as="geometry" />
        </mxCell>
        <mxCell id="B3AwaCvAjvExfI_dVN_B-14" value="" style="line;strokeWidth=1;fillColor=none;align=left;verticalAlign=middle;spacingTop=-1;spacingLeft=3;spacingRight=3;rotatable=0;labelPosition=right;points=[];portConstraint=eastwest;strokeColor=inherit;" vertex="1" parent="B3AwaCvAjvExfI_dVN_B-12">
          <mxGeometry y="130" width="160" height="8" as="geometry" />
        </mxCell>
        <mxCell id="B3AwaCvAjvExfI_dVN_B-15" value="&lt;div&gt;+ saveDesign(): void&lt;/div&gt;&lt;div&gt;+ previewDesign(): void&amp;nbsp;&lt;/div&gt;&lt;div&gt;+ addToCart(): void&lt;/div&gt;" style="text;strokeColor=none;fillColor=none;align=left;verticalAlign=top;spacingLeft=4;spacingRight=4;overflow=hidden;rotatable=0;points=[[0,0.5],[1,0.5]];portConstraint=eastwest;whiteSpace=wrap;html=1;" vertex="1" parent="B3AwaCvAjvExfI_dVN_B-12">
          <mxGeometry y="138" width="160" height="62" as="geometry" />
        </mxCell>
        <mxCell id="B3AwaCvAjvExfI_dVN_B-45" style="edgeStyle=orthogonalEdgeStyle;rounded=0;orthogonalLoop=1;jettySize=auto;html=1;exitX=0.5;exitY=0;exitDx=0;exitDy=0;entryX=0.5;entryY=0;entryDx=0;entryDy=0;" edge="1" parent="1" source="B3AwaCvAjvExfI_dVN_B-16" target="B3AwaCvAjvExfI_dVN_B-8">
          <mxGeometry relative="1" as="geometry" />
        </mxCell>
        <mxCell id="B3AwaCvAjvExfI_dVN_B-16" value="Cart" style="swimlane;fontStyle=1;align=center;verticalAlign=top;childLayout=stackLayout;horizontal=1;startSize=26;horizontalStack=0;resizeParent=1;resizeParentMax=0;resizeLast=0;collapsible=1;marginBottom=0;whiteSpace=wrap;html=1;" vertex="1" parent="1">
          <mxGeometry x="-400" y="280" width="310" height="170" as="geometry" />
        </mxCell>
        <mxCell id="B3AwaCvAjvExfI_dVN_B-17" value="&lt;div&gt;- cartId: int&amp;nbsp;&lt;/div&gt;&lt;div&gt;- userId: int&lt;/div&gt;&lt;div&gt;- productList: List&amp;lt;Product&amp;gt;&lt;/div&gt;&lt;div&gt;- totalPrice: float&lt;/div&gt;" style="text;strokeColor=none;fillColor=none;align=left;verticalAlign=top;spacingLeft=4;spacingRight=4;overflow=hidden;rotatable=0;points=[[0,0.5],[1,0.5]];portConstraint=eastwest;whiteSpace=wrap;html=1;" vertex="1" parent="B3AwaCvAjvExfI_dVN_B-16">
          <mxGeometry y="26" width="310" height="74" as="geometry" />
        </mxCell>
        <mxCell id="B3AwaCvAjvExfI_dVN_B-18" value="" style="line;strokeWidth=1;fillColor=none;align=left;verticalAlign=middle;spacingTop=-1;spacingLeft=3;spacingRight=3;rotatable=0;labelPosition=right;points=[];portConstraint=eastwest;strokeColor=inherit;" vertex="1" parent="B3AwaCvAjvExfI_dVN_B-16">
          <mxGeometry y="100" width="310" height="8" as="geometry" />
        </mxCell>
        <mxCell id="B3AwaCvAjvExfI_dVN_B-19" value="&lt;div&gt;+ addToCart(product: Product): void&lt;/div&gt;&lt;div&gt;+ removeFromCart(productId: int): void&lt;/div&gt;&lt;div&gt;+ checkout(): Order&lt;/div&gt;" style="text;strokeColor=none;fillColor=none;align=left;verticalAlign=top;spacingLeft=4;spacingRight=4;overflow=hidden;rotatable=0;points=[[0,0.5],[1,0.5]];portConstraint=eastwest;whiteSpace=wrap;html=1;" vertex="1" parent="B3AwaCvAjvExfI_dVN_B-16">
          <mxGeometry y="108" width="310" height="62" as="geometry" />
        </mxCell>
        <mxCell id="B3AwaCvAjvExfI_dVN_B-47" style="edgeStyle=orthogonalEdgeStyle;rounded=0;orthogonalLoop=1;jettySize=auto;html=1;entryX=0.75;entryY=0;entryDx=0;entryDy=0;" edge="1" parent="1" source="B3AwaCvAjvExfI_dVN_B-20" target="B3AwaCvAjvExfI_dVN_B-8">
          <mxGeometry relative="1" as="geometry" />
        </mxCell>
        <mxCell id="B3AwaCvAjvExfI_dVN_B-20" value="Order" style="swimlane;fontStyle=1;align=center;verticalAlign=top;childLayout=stackLayout;horizontal=1;startSize=26;horizontalStack=0;resizeParent=1;resizeParentMax=0;resizeLast=0;collapsible=1;marginBottom=0;whiteSpace=wrap;html=1;" vertex="1" parent="1">
          <mxGeometry x="450" y="10" width="250" height="230" as="geometry" />
        </mxCell>
        <mxCell id="B3AwaCvAjvExfI_dVN_B-21" value="&lt;div&gt;- orderId: int (private)&lt;/div&gt;&lt;div&gt;- userId: int (private)&lt;/div&gt;&lt;div&gt;- productList: List&amp;lt;Product&amp;gt;&amp;nbsp;&lt;/div&gt;&lt;div&gt;- totalPrice: float (private)&lt;/div&gt;&lt;div&gt;- status: string (private)&amp;nbsp;&lt;/div&gt;&lt;div&gt;- paymentMethod: string&amp;nbsp;&lt;/div&gt;&lt;div&gt;- shippingAddress: string&lt;/div&gt;" style="text;strokeColor=none;fillColor=none;align=left;verticalAlign=top;spacingLeft=4;spacingRight=4;overflow=hidden;rotatable=0;points=[[0,0.5],[1,0.5]];portConstraint=eastwest;whiteSpace=wrap;html=1;" vertex="1" parent="B3AwaCvAjvExfI_dVN_B-20">
          <mxGeometry y="26" width="250" height="134" as="geometry" />
        </mxCell>
        <mxCell id="B3AwaCvAjvExfI_dVN_B-22" value="" style="line;strokeWidth=1;fillColor=none;align=left;verticalAlign=middle;spacingTop=-1;spacingLeft=3;spacingRight=3;rotatable=0;labelPosition=right;points=[];portConstraint=eastwest;strokeColor=inherit;" vertex="1" parent="B3AwaCvAjvExfI_dVN_B-20">
          <mxGeometry y="160" width="250" height="8" as="geometry" />
        </mxCell>
        <mxCell id="B3AwaCvAjvExfI_dVN_B-23" value="&lt;div&gt;+ placeOrder(): void&lt;/div&gt;&lt;div&gt;+ cancelOrder(): void&amp;nbsp;&lt;/div&gt;&lt;div&gt;+ updateStatus(newStatus: string): void&lt;/div&gt;" style="text;strokeColor=none;fillColor=none;align=left;verticalAlign=top;spacingLeft=4;spacingRight=4;overflow=hidden;rotatable=0;points=[[0,0.5],[1,0.5]];portConstraint=eastwest;whiteSpace=wrap;html=1;" vertex="1" parent="B3AwaCvAjvExfI_dVN_B-20">
          <mxGeometry y="168" width="250" height="62" as="geometry" />
        </mxCell>
        <mxCell id="B3AwaCvAjvExfI_dVN_B-24" value="EcoResponsibility" style="swimlane;fontStyle=1;align=center;verticalAlign=top;childLayout=stackLayout;horizontal=1;startSize=26;horizontalStack=0;resizeParent=1;resizeParentMax=0;resizeLast=0;collapsible=1;marginBottom=0;whiteSpace=wrap;html=1;" vertex="1" parent="1">
          <mxGeometry x="-420" y="40" width="150" height="190" as="geometry" />
        </mxCell>
        <mxCell id="B3AwaCvAjvExfI_dVN_B-25" value="&lt;div&gt;- contentId: int&lt;/div&gt;&lt;div&gt;- title: string&lt;/div&gt;&lt;div&gt;- description: string&lt;/div&gt;&lt;div&gt;- imageUrl: string&lt;/div&gt;&lt;div&gt;- videoUrl: string&lt;/div&gt;" style="text;strokeColor=none;fillColor=none;align=left;verticalAlign=top;spacingLeft=4;spacingRight=4;overflow=hidden;rotatable=0;points=[[0,0.5],[1,0.5]];portConstraint=eastwest;whiteSpace=wrap;html=1;" vertex="1" parent="B3AwaCvAjvExfI_dVN_B-24">
          <mxGeometry y="26" width="150" height="94" as="geometry" />
        </mxCell>
        <mxCell id="B3AwaCvAjvExfI_dVN_B-26" value="" style="line;strokeWidth=1;fillColor=none;align=left;verticalAlign=middle;spacingTop=-1;spacingLeft=3;spacingRight=3;rotatable=0;labelPosition=right;points=[];portConstraint=eastwest;strokeColor=inherit;" vertex="1" parent="B3AwaCvAjvExfI_dVN_B-24">
          <mxGeometry y="120" width="150" height="8" as="geometry" />
        </mxCell>
        <mxCell id="B3AwaCvAjvExfI_dVN_B-27" value="&lt;div&gt;+ addContent(): void&lt;/div&gt;&lt;div&gt;+ editContent(): void&lt;/div&gt;&lt;div&gt;+ deleteContent(): void&lt;/div&gt;" style="text;strokeColor=none;fillColor=none;align=left;verticalAlign=top;spacingLeft=4;spacingRight=4;overflow=hidden;rotatable=0;points=[[0,0.5],[1,0.5]];portConstraint=eastwest;whiteSpace=wrap;html=1;" vertex="1" parent="B3AwaCvAjvExfI_dVN_B-24">
          <mxGeometry y="128" width="150" height="62" as="geometry" />
        </mxCell>
        <mxCell id="B3AwaCvAjvExfI_dVN_B-52" style="edgeStyle=orthogonalEdgeStyle;rounded=0;orthogonalLoop=1;jettySize=auto;html=1;" edge="1" parent="1" source="B3AwaCvAjvExfI_dVN_B-28" target="B3AwaCvAjvExfI_dVN_B-21">
          <mxGeometry relative="1" as="geometry" />
        </mxCell>
        <mxCell id="B3AwaCvAjvExfI_dVN_B-28" value="&lt;blockquote style=&quot;margin: 0 0 0 40px; border: none; padding: 0px;&quot;&gt;Payment&lt;/blockquote&gt;" style="swimlane;fontStyle=1;align=center;verticalAlign=top;childLayout=stackLayout;horizontal=1;startSize=26;horizontalStack=0;resizeParent=1;resizeParentMax=0;resizeLast=0;collapsible=1;marginBottom=0;whiteSpace=wrap;html=1;" vertex="1" parent="1">
          <mxGeometry x="540" y="-280" width="190" height="190" as="geometry" />
        </mxCell>
        <mxCell id="B3AwaCvAjvExfI_dVN_B-29" value="&lt;div&gt;- paymentId: int&lt;/div&gt;&lt;div&gt;- orderId: int&amp;nbsp;&lt;/div&gt;&lt;div&gt;- amount: float&lt;/div&gt;&lt;div&gt;- paymentMethod: string&lt;/div&gt;&lt;div&gt;- status: string&lt;/div&gt;" style="text;strokeColor=none;fillColor=none;align=left;verticalAlign=top;spacingLeft=4;spacingRight=4;overflow=hidden;rotatable=0;points=[[0,0.5],[1,0.5]];portConstraint=eastwest;whiteSpace=wrap;html=1;" vertex="1" parent="B3AwaCvAjvExfI_dVN_B-28">
          <mxGeometry y="26" width="190" height="94" as="geometry" />
        </mxCell>
        <mxCell id="B3AwaCvAjvExfI_dVN_B-30" value="" style="line;strokeWidth=1;fillColor=none;align=left;verticalAlign=middle;spacingTop=-1;spacingLeft=3;spacingRight=3;rotatable=0;labelPosition=right;points=[];portConstraint=eastwest;strokeColor=inherit;" vertex="1" parent="B3AwaCvAjvExfI_dVN_B-28">
          <mxGeometry y="120" width="190" height="8" as="geometry" />
        </mxCell>
        <mxCell id="B3AwaCvAjvExfI_dVN_B-31" value="&lt;div&gt;+ processPayment(): boolean&lt;/div&gt;&lt;div&gt;+ refundPayment(): boolean&lt;/div&gt;" style="text;strokeColor=none;fillColor=none;align=left;verticalAlign=top;spacingLeft=4;spacingRight=4;overflow=hidden;rotatable=0;points=[[0,0.5],[1,0.5]];portConstraint=eastwest;whiteSpace=wrap;html=1;" vertex="1" parent="B3AwaCvAjvExfI_dVN_B-28">
          <mxGeometry y="128" width="190" height="62" as="geometry" />
        </mxCell>
        <mxCell id="B3AwaCvAjvExfI_dVN_B-44" style="edgeStyle=orthogonalEdgeStyle;rounded=0;orthogonalLoop=1;jettySize=auto;html=1;entryX=0.845;entryY=0.023;entryDx=0;entryDy=0;entryPerimeter=0;" edge="1" parent="1" source="B3AwaCvAjvExfI_dVN_B-4" target="B3AwaCvAjvExfI_dVN_B-16">
          <mxGeometry relative="1" as="geometry">
            <Array as="points">
              <mxPoint x="-138" y="110" />
            </Array>
          </mxGeometry>
        </mxCell>
        <mxCell id="B3AwaCvAjvExfI_dVN_B-49" style="edgeStyle=orthogonalEdgeStyle;rounded=0;orthogonalLoop=1;jettySize=auto;html=1;entryX=0.577;entryY=0.009;entryDx=0;entryDy=0;entryPerimeter=0;" edge="1" parent="1" source="B3AwaCvAjvExfI_dVN_B-4" target="B3AwaCvAjvExfI_dVN_B-24">
          <mxGeometry relative="1" as="geometry">
            <Array as="points">
              <mxPoint x="-333" y="-70" />
            </Array>
          </mxGeometry>
        </mxCell>
        <mxCell id="B3AwaCvAjvExfI_dVN_B-55" value="1,*" style="text;html=1;align=center;verticalAlign=middle;whiteSpace=wrap;rounded=0;" vertex="1" parent="1">
          <mxGeometry x="110" y="-197" width="60" height="30" as="geometry" />
        </mxCell>
        <mxCell id="B3AwaCvAjvExfI_dVN_B-56" value="1,1" style="text;html=1;align=center;verticalAlign=middle;whiteSpace=wrap;rounded=0;" vertex="1" parent="1">
          <mxGeometry x="468" y="-20" width="60" height="30" as="geometry" />
        </mxCell>
        <mxCell id="B3AwaCvAjvExfI_dVN_B-58" value="1,*" style="text;html=1;align=center;verticalAlign=middle;whiteSpace=wrap;rounded=0;" vertex="1" parent="1">
          <mxGeometry x="401" y="100" width="60" height="30" as="geometry" />
        </mxCell>
        <mxCell id="B3AwaCvAjvExfI_dVN_B-59" value="1,*" style="text;html=1;align=center;verticalAlign=middle;whiteSpace=wrap;rounded=0;" vertex="1" parent="1">
          <mxGeometry x="247" y="204" width="60" height="30" as="geometry" />
        </mxCell>
        <mxCell id="B3AwaCvAjvExfI_dVN_B-60" value="1,*" style="text;html=1;align=center;verticalAlign=middle;whiteSpace=wrap;rounded=0;" vertex="1" parent="1">
          <mxGeometry x="285" y="310" width="60" height="30" as="geometry" />
        </mxCell>
        <mxCell id="B3AwaCvAjvExfI_dVN_B-61" value="1,*" style="text;html=1;align=center;verticalAlign=middle;whiteSpace=wrap;rounded=0;" vertex="1" parent="1">
          <mxGeometry x="528" y="370" width="60" height="30" as="geometry" />
        </mxCell>
        <mxCell id="B3AwaCvAjvExfI_dVN_B-63" value="1,*" style="text;html=1;align=center;verticalAlign=middle;whiteSpace=wrap;rounded=0;" vertex="1" parent="1">
          <mxGeometry x="143" y="-65" width="60" height="30" as="geometry" />
        </mxCell>
        <mxCell id="B3AwaCvAjvExfI_dVN_B-64" value="1,1" style="text;html=1;align=center;verticalAlign=middle;whiteSpace=wrap;rounded=0;" vertex="1" parent="1">
          <mxGeometry x="-151" y="252" width="60" height="30" as="geometry" />
        </mxCell>
        <mxCell id="B3AwaCvAjvExfI_dVN_B-65" value="1,*" style="text;html=1;align=center;verticalAlign=middle;whiteSpace=wrap;rounded=0;" vertex="1" parent="1">
          <mxGeometry x="-260" y="253" width="60" height="30" as="geometry" />
        </mxCell>
        <mxCell id="B3AwaCvAjvExfI_dVN_B-66" value="1,*" style="text;html=1;align=center;verticalAlign=middle;whiteSpace=wrap;rounded=0;" vertex="1" parent="1">
          <mxGeometry x="180" y="188" width="60" height="30" as="geometry" />
        </mxCell>
        <mxCell id="B3AwaCvAjvExfI_dVN_B-68" value="1,*" style="text;html=1;align=center;verticalAlign=middle;whiteSpace=wrap;rounded=0;" vertex="1" parent="1">
          <mxGeometry x="-50" y="-90" width="60" height="30" as="geometry" />
        </mxCell>
        <mxCell id="B3AwaCvAjvExfI_dVN_B-69" value="1,*" style="text;html=1;align=center;verticalAlign=middle;whiteSpace=wrap;rounded=0;" vertex="1" parent="1">
          <mxGeometry x="-345" y="10" width="60" height="30" as="geometry" />
        </mxCell>
        <mxCell id="B3AwaCvAjvExfI_dVN_B-70" value="1,1" style="text;html=1;align=center;verticalAlign=middle;whiteSpace=wrap;rounded=0;" vertex="1" parent="1">
          <mxGeometry x="640" y="-330" width="60" height="30" as="geometry" />
        </mxCell>
        <mxCell id="B3AwaCvAjvExfI_dVN_B-71" value="1,1" style="text;html=1;align=center;verticalAlign=middle;whiteSpace=wrap;rounded=0;" vertex="1" parent="1">
          <mxGeometry x="620" y="-92" width="60" height="30" as="geometry" />
        </mxCell>
        <mxCell id="B3AwaCvAjvExfI_dVN_B-72" value="1,1" style="text;html=1;align=center;verticalAlign=middle;whiteSpace=wrap;rounded=0;" vertex="1" parent="1">
          <mxGeometry x="702" y="80" width="60" height="30" as="geometry" />
        </mxCell>
        <mxCell id="B3AwaCvAjvExfI_dVN_B-73" value="has " style="text;html=1;align=center;verticalAlign=middle;whiteSpace=wrap;rounded=0;" vertex="1" parent="1">
          <mxGeometry x="660" y="-52" width="60" height="30" as="geometry" />
        </mxCell>
        <mxCell id="B3AwaCvAjvExfI_dVN_B-74" value="have" style="text;html=1;align=center;verticalAlign=middle;whiteSpace=wrap;rounded=0;" vertex="1" parent="1">
          <mxGeometry x="307" y="-90" width="60" height="30" as="geometry" />
        </mxCell>
        <mxCell id="B3AwaCvAjvExfI_dVN_B-75" value="Place" style="text;html=1;align=center;verticalAlign=middle;whiteSpace=wrap;rounded=0;" vertex="1" parent="1">
          <mxGeometry x="285" y="-197" width="60" height="30" as="geometry" />
        </mxCell>
        <mxCell id="B3AwaCvAjvExfI_dVN_B-76" value="Contain" style="text;html=1;align=center;verticalAlign=middle;whiteSpace=wrap;rounded=0;" vertex="1" parent="1">
          <mxGeometry x="286" y="98" width="60" height="30" as="geometry" />
        </mxCell>
        <mxCell id="B3AwaCvAjvExfI_dVN_B-77" value="have " style="text;html=1;align=center;verticalAlign=middle;whiteSpace=wrap;rounded=0;" vertex="1" parent="1">
          <mxGeometry x="460" y="310" width="60" height="30" as="geometry" />
        </mxCell>
        <mxCell id="B3AwaCvAjvExfI_dVN_B-78" value="has " style="text;html=1;align=center;verticalAlign=middle;whiteSpace=wrap;rounded=0;" vertex="1" parent="1">
          <mxGeometry x="-30" y="82" width="60" height="30" as="geometry" />
        </mxCell>
        <mxCell id="B3AwaCvAjvExfI_dVN_B-79" value="contain " style="text;html=1;align=center;verticalAlign=middle;whiteSpace=wrap;rounded=0;" vertex="1" parent="1">
          <mxGeometry x="-40" y="180" width="60" height="30" as="geometry" />
        </mxCell>
        <mxCell id="B3AwaCvAjvExfI_dVN_B-80" value="Managed By" style="text;html=1;align=center;verticalAlign=middle;whiteSpace=wrap;rounded=0;" vertex="1" parent="1">
          <mxGeometry x="-211" y="-100" width="71" height="30" as="geometry" />
        </mxCell>
      </root>
    </mxGraphModel>
  </diagram>
</mxfile>
